<?xml version="1.0" encoding="utf-8"?>
<!-- Generator: Adobe Illustrator 18.0.0, SVG Export Plug-In . SVG Version: 6.00 Build 0)  -->
<!DOCTYPE svg PUBLIC "-//W3C//DTD SVG 1.1//EN" "http://www.w3.org/Graphics/SVG/1.1/DTD/svg11.dtd">
<svg version="1.1" id="Layer_1" xmlns="http://www.w3.org/2000/svg" xmlns:xlink="http://www.w3.org/1999/xlink" x="0px" y="0px"
	 viewBox="0 0 251.3 74.3" enable-background="new 0 0 251.3 74.3" xml:space="preserve">
<path fill="#EF404E" d="M68.9,49.7c-3.1,0-4.2-1.5-4.2-4.4V29.1c0-3,1.1-4.4,4.2-4.4h1.5c3.1,0,4.2,1.5,4.2,4.4v3.4h12.4v9.3H74.6
	v3.4c0,3-1.1,4.4-4.2,4.4H68.9z M29.5,42.2l3.3-18.1h0.7l3.4,18.1H29.5z M12.7,61.5h13.1l1.6-8.5h11.5l1.6,8.5h13.6l-1.5-7.4
	c2.4,5.4,7.6,8.2,15.6,8.2h1.5c10.6,0,16.3-4.9,17.2-13.4v12.6h31.7v-8c2.7,6,8.1,8.8,16.3,8.8h1.9c11.7,0,17.7-6,17.7-17.4v-32
	h-13.8v32.6c0,2.8-1,4.2-4,4.2H135c-3.1,0-4-1.5-4-4.2V12.8h-13.8v35.4h-16.4V12.8H86.9v12.1C86,16.8,80.8,12,70.4,12h-2.2
	c-11.9,0-17.3,6-17.3,17.1v16.1v0.9l-6.9-33.3H22.8L12.7,61.5z"/>
<g>
	<path fill="#FFFFFF" d="M232.5,32.2v-7.3h5.6v-2.7h-5.6v-6.7h6.1v-2.7h-9.5v22h9.7v-2.7H232.5z M217.8,34.8h9.1v-2.9h-5.8V12.8
		h-3.4V34.8z M212.1,20.1c0,2.4-0.9,3.4-2.6,3.4h-1.8v-8.3h1.7c1.8,0,2.7,1,2.7,3.2V20.1z M209.8,12.8h-5.4v22h3.4v-8.9h2.1
		c3.6,0,5.7-2.1,5.7-5.8v-1.9C215.5,14.6,213.6,12.8,209.8,12.8 M195.1,32.7c-1.8,0-2.8-1.3-2.8-3.6V18.6c0-2.3,1-3.6,2.8-3.6
		c1.8,0,2.8,1.3,2.8,3.6v10.5C198,31.4,197,32.7,195.1,32.7 M195.1,35.3c4,0,6.3-2.3,6.3-6.6v-9.8c0-4.3-2.3-6.6-6.3-6.6
		c-4,0-6.3,2.3-6.3,6.6v9.8C188.9,33,191.1,35.3,195.1,35.3 M180.9,32.2v-7.3h5.6v-2.7h-5.6v-6.7h6.1v-2.7h-9.5v22h9.7v-2.7H180.9z
		 M171.9,20.1c0,2.4-0.9,3.4-2.6,3.4h-1.8v-8.3h1.7c1.8,0,2.7,1,2.7,3.2V20.1z M169.5,12.8h-5.4v22h3.4v-8.9h2.1
		c3.6,0,5.7-2.1,5.7-5.8v-1.9C175.3,14.6,173.4,12.8,169.5,12.8"/>
	<path fill="#FFFFFF" d="M230.5,50v-8.1h1.9c2,0,2.8,1,2.8,3.3v1.3c0,2.4-0.8,3.5-2.8,3.5H230.5z M235.7,61.5h3.7l-3.5-9.9
		c1.9-0.7,2.9-2.5,2.9-5.2v-1.2c0-3.6-1.8-5.6-6.2-5.6H227v22h3.5v-9.2h2.1L235.7,61.5z M217.8,58.8v-7.4h5.9v-2.7h-5.9v-6.7h6.4
		v-2.7h-10v22h10.2v-2.7H217.8z M195.2,61.5h4.6l1.9-14.3c0.2-1.3,0.3-3,0.3-4.1h0.2c0.1,1.1,0.2,2.8,0.3,4.1l1.9,14.3h4.6l2.8-22
		h-3.4l-1.6,14.9c-0.1,1.2-0.2,2.4-0.3,3.8h-0.1c-0.1-1.1-0.3-2.5-0.4-3.7l-2-15h-3.8l-2,15c-0.1,1.2-0.2,2.5-0.4,3.7h-0.1
		c0-1.4-0.1-2.6-0.3-3.8l-1.6-14.9h-3.4L195.2,61.5z M184.3,59.3c-1.9,0-2.9-1.3-2.9-3.6V45.2c0-2.3,1-3.6,2.9-3.6
		c1.9,0,3,1.3,3,3.6v10.5C187.3,58,186.2,59.3,184.3,59.3 M184.3,62c4.2,0,6.6-2.3,6.6-6.6v-9.8c0-4.3-2.4-6.6-6.6-6.6
		c-4.2,0-6.6,2.3-6.6,6.6v9.8C177.6,59.6,180,62,184.3,62 M172.3,46.7c0,2.4-0.9,3.4-2.8,3.4h-1.9v-8.3h1.8c1.9,0,2.8,1,2.8,3.2
		V46.7z M169.8,39.5h-5.7v22h3.5v-8.9h2.2c3.8,0,6-2.1,6-5.8v-1.9C175.9,41.3,173.9,39.5,169.8,39.5"/>
</g>
</svg>
